<svg width="40" height="40" fill="none" xmlns="http://www.w3.org/2000/svg"><path d="M20 0a20 20 0 1 0 0 40 20 20 0 0 0 0-40Zm13.67 9.56-4.5 7.69-8.32-14.43a17.22 17.22 0 0 1 12.82 6.74ZM16.27 26.5 12.48 20l3.76-6.5h7.54l3.79 6.55-3.79 6.47h-7.5ZM17.7 2.96l4.46 7.73H5.55a17.21 17.21 0 0 1 12.14-7.73ZM4.09 13.49h8.9L4.7 27.86a17.06 17.06 0 0 1-.6-14.37ZM6.4 30.5l4.46-7.72 3.23 5.55c.06.2.17.4.32.55l4.84 8.31A17.22 17.22 0 0 1 6.4 30.51Zm16 6.52-4.5-7.7h16.56a17.29 17.29 0 0 1-12.06 7.7ZM35.92 26.5H27l8.34-14.28a17.2 17.2 0 0 1 .57 14.28Z" fill="#fff"/></svg>