<svg width="22" height="22" fill="none" xmlns="http://www.w3.org/2000/svg"><g clip-path="url(#a)" fill="#524B9A"><path d="M21.77 8.94 11.34 1.3a.57.57 0 0 0-.68 0L.23 8.94a.57.57 0 1 0 .68.92L11 2.47l10.1 7.4a.57.57 0 0 0 .79-.13.57.57 0 0 0-.12-.8Z"/><path d="M19 10a.57.57 0 0 0-.57.56v9.1h-4.57V14.7a2.86 2.86 0 0 0-5.72 0v4.96H3.57v-9.1a.57.57 0 0 0-1.14 0v9.67c0 .32.25.58.57.58H8.7a.57.57 0 0 0 .57-.58V14.7a1.72 1.72 0 0 1 3.44 0v5.58c.02.3.27.53.57.53H19c.32 0 .57-.26.57-.58v-9.67A.57.57 0 0 0 19 10Z"/></g><defs><clipPath id="a"><path fill="#fff" d="M0 0h22v22H0z"/></clipPath></defs></svg>