<svg width="14" height="18" fill="none" xmlns="http://www.w3.org/2000/svg"><path d="M13.75 3.64c0-.1-.05-.21-.12-.29L10.4.12a.42.42 0 0 0-.3-.12H1.14C.64 0 .25.4.25.89V17.1c0 .5.4.89.89.89h11.72c.5 0 .89-.4.89-.89V3.65Zm-3.23-2.2 1.79 1.79h-1.74a.04.04 0 0 1-.05-.05V1.44Zm2.39 15.67c0 .03-.02.05-.05.05H1.14a.04.04 0 0 1-.05-.05V.9c0-.03.02-.05.05-.05h8.54v2.34c0 .5.4.89.89.89h2.34V17.1Z" fill="#252061"/><path d="M10.73 5.77H3.27a.42.42 0 0 0 0 .84h7.46a.42.42 0 0 0 0-.84ZM10.73 8.3H3.27a.42.42 0 0 0 0 .85h7.46a.42.42 0 0 0 0-.84ZM10.73 10.85H3.27a.42.42 0 0 0 0 .85h7.46a.42.42 0 1 0 0-.85ZM7 13.4H3.27a.42.42 0 0 0 0 .84H7a.42.42 0 0 0 0-.84Z" fill="#252061"/></svg>