<svg width="20" height="20" fill="none" xmlns="http://www.w3.org/2000/svg"><path d="m8.87 6.53.1.2c.04.05.1.1.13.16l.19.17c.05.03.13.09.22.1a.9.9 0 0 0 .23.08c.1.02.17.02.24.02.07 0 .17 0 .24-.02.07-.02.15-.04.2-.07h.02l.22-.13.16-.15.02-.02a1 1 0 0 0 .13-.16.57.57 0 0 0 .09-.18l.02-.04c.04-.07.05-.16.07-.24.02-.07.02-.16.02-.24 0-.07 0-.16-.02-.23a1.7 1.7 0 0 0-.07-.24 1.04 1.04 0 0 0-.22-.33l-.04-.04-.18-.14-.2-.11c-.07-.04-.15-.06-.22-.08l-.24-.01-.24.01c-.07.02-.14.04-.22.08h-.01l-.2.1-.19.15-.14.17c-.04.05-.08.13-.11.2-.04.07-.06.15-.08.22L8.78 6l.01.23c.02.15.06.22.08.3ZM11.4 13.22H11V8.74c0-.26-.2-.48-.48-.48H8.6c-.25 0-.47.2-.47.48v.99c0 .25.2.47.47.47h.39v3.04h-.39c-.25 0-.47.2-.47.47v.99c0 .25.2.47.47.47h2.82c.25 0 .47-.2.47-.47v-.99c0-.27-.22-.5-.47-.5Z" fill="#fff"/><path d="M10 0a10 10 0 1 0 0 20 10 10 0 0 0 0-20Zm0 18.68a8.7 8.7 0 1 1 .02-17.38A8.7 8.7 0 0 1 10 18.68Z" fill="#fff"/></svg>